<?xml version="1.0" standalone="no"?>
<!DOCTYPE svg PUBLIC "-//W3C//DTD SVG 20010904//EN"
 "http://www.w3.org/TR/2001/REC-SVG-20010904/DTD/svg10.dtd">
<svg version="1.0" xmlns="http://www.w3.org/2000/svg"
 width="250.000000pt" height="40.000000pt" viewBox="0 0 250.000000 40.000000"
 preserveAspectRatio="xMidYMid meet">

<g transform="translate(0.000000,40.000000) scale(0.100000,-0.100000)"
fill="#000000" stroke="none">
<path d="M0 293 l0 -102 32 -25 c18 -14 29 -28 25 -33 -5 -4 -11 -3 -15 2 -4
6 -15 16 -25 24 -17 13 -18 10 -15 -70 l3 -83 1247 -1 1248 0 0 195 0 196
-1037 -3 -1037 -4 -2 -53 c-2 -62 -30 -131 -68 -165 -33 -31 -34 -18 0 26 36
48 54 96 54 147 0 34 -4 46 -18 50 -10 3 -102 5 -205 3 l-187 -2 0 -102z
m1800 -93 l0 -160 -165 0 c-125 0 -165 3 -166 13 0 6 -1 78 -2 159 l-2 148
168 0 167 0 0 -160z m470 105 c0 -16 -9 -19 -35 -9 -13 5 -14 8 -3 15 20 13
38 11 38 -6z m-1757 -41 c31 -11 44 -20 40 -29 -8 -22 -40 -28 -78 -15 -27 9
-35 17 -35 36 0 28 10 29 73 8z m177 -19 c0 -21 5 -25 30 -25 25 0 30 4 30 25
0 16 6 25 15 25 12 0 15 -15 15 -75 0 -60 -3 -75 -15 -75 -10 0 -15 11 -15 35
0 32 -2 35 -30 35 -28 0 -30 -3 -30 -35 0 -24 -5 -35 -15 -35 -12 0 -15 15
-15 75 0 60 3 75 15 75 9 0 15 -9 15 -25z m221 -45 c23 -71 19 -103 -8 -62
-19 27 -49 29 -63 2 -9 -16 -40 -29 -40 -17 0 3 33 103 45 135 2 6 13 12 24
12 16 0 25 -15 42 -70z m74 43 l18 -26 14 26 c7 15 22 27 33 27 18 0 17 -2 -5
-42 -14 -24 -25 -58 -25 -76 0 -26 -4 -33 -17 -30 -12 2 -18 13 -19 33 -1 17
-11 46 -22 65 -26 41 -27 50 -8 50 7 0 22 -12 31 -27z m193 -37 c12 -36 22
-70 22 -75 0 -18 -28 -12 -34 7 -8 25 -53 27 -61 2 -6 -18 -35 -29 -35 -13 0
4 10 37 22 75 18 55 26 68 43 68 16 0 25 -13 43 -64z m106 22 l26 -43 0 43 c0
35 3 42 20 42 17 0 20 -7 20 -52 0 -109 -22 -125 -67 -50 l-28 47 -3 -47 c-2
-34 -7 -48 -18 -48 -11 0 -14 16 -14 75 0 68 2 75 19 75 13 0 29 -16 45 -42z
m126 -33 c0 -60 -3 -75 -15 -75 -12 0 -15 15 -15 75 0 60 3 75 15 75 12 0 15
-15 15 -75z"/>
<path d="M1482 203 l3 -148 107 -2 107 -2 3 37 c3 35 5 37 41 40 31 3 37 7 37
26 0 18 -15 33 -63 64 -60 37 -64 41 -59 71 l4 31 47 -33 c75 -54 71 -54 71 7
l0 56 -150 0 -151 0 3 -147z m101 108 c23 -9 24 -13 26 -126 l2 -116 -33 3
-33 3 -3 123 c-2 74 1 122 7 122 5 0 20 -4 34 -9z"/>
<path d="M1571 204 c0 -11 3 -14 6 -6 3 7 2 16 -1 19 -3 4 -6 -2 -5 -13z"/>
<path d="M1735 75 l-30 -25 35 2 c28 2 36 8 38 26 4 28 -6 28 -43 -3z"/>
<path d="M860 223 c0 -6 -3 -18 -6 -27 -4 -11 -1 -16 10 -16 9 0 16 6 16 13 0
16 -20 46 -20 30z"/>
<path d="M1131 223 c-1 -6 -4 -18 -7 -27 -4 -11 -1 -16 10 -16 18 0 19 6 6 35
-5 11 -9 15 -9 8z"/>
</g>
</svg>
